<?xml version="1.0" encoding="UTF-8"?>
<!DOCTYPE svg PUBLIC "-//W3C//DTD SVG 1.1//EN" "http://www.w3.org/Graphics/SVG/1.1/DTD/svg11.dtd">
<svg xmlns="http://www.w3.org/2000/svg" version="1.1" width="755px" height="1511px" style="shape-rendering:geometricPrecision; text-rendering:geometricPrecision; image-rendering:optimizeQuality; fill-rule:evenodd; clip-rule:evenodd" xmlns:xlink="http://www.w3.org/1999/xlink">
<g><path style="opacity:0.743" fill="#000000" d="M 382.5,103.5 C 390.291,106.205 390.291,109.371 382.5,113C 378.998,113.694 375.664,113.194 372.5,111.5C 370.553,112.277 368.72,113.277 367,114.5C 365.365,114.122 363.865,113.456 362.5,112.5C 365.632,104.392 371.132,102.392 379,106.5C 380.642,106.022 381.809,105.022 382.5,103.5 Z"/></g>
<g><path style="opacity:0.868" fill="#000000" d="M 159.5,110.5 C 160.222,110.918 160.722,111.584 161,112.5C 162.146,122.34 162.313,132.174 161.5,142C 160.388,148.268 162.888,151.434 169,151.5C 172.595,151.281 176.095,150.614 179.5,149.5C 180.347,144.188 179.013,139.355 175.5,135C 178.585,133.04 181.752,131.207 185,129.5C 196.136,154.713 187.97,165.213 160.5,161C 157.461,159.969 154.961,158.135 153,155.5C 151.881,142.022 151.048,128.522 150.5,115C 153.208,112.825 156.208,111.325 159.5,110.5 Z"/></g>
<g><path style="opacity:0.872" fill="#000000" d="M 201.5,110.5 C 202.931,110.881 203.764,111.881 204,113.5C 205.341,129.134 205.841,144.8 205.5,160.5C 201.865,161.114 198.198,161.448 194.5,161.5C 195.87,146.483 195.537,131.483 193.5,116.5C 193.833,115.5 194.167,114.5 194.5,113.5C 197.016,112.67 199.35,111.67 201.5,110.5 Z"/></g>
<g><path style="opacity:0.868" fill="#000000" d="M 335.5,110.5 C 336.725,111.152 337.392,112.319 337.5,114C 338.736,125.867 340.07,137.701 341.5,149.5C 346.514,152.271 351.347,151.937 356,148.5C 355.331,143.827 353.831,139.327 351.5,135C 354.137,132.676 357.137,130.843 360.5,129.5C 365.818,138.164 366.651,147.164 363,156.5C 361.048,158.894 358.548,160.394 355.5,161C 350.167,161.667 344.833,161.667 339.5,161C 337.579,160.64 335.912,159.806 334.5,158.5C 326.383,163.742 317.716,165.076 308.5,162.5C 309.58,159.668 310.58,156.835 311.5,154C 314.5,153.667 317.5,153.333 320.5,153C 316.127,142.252 310.46,132.252 303.5,123C 306,120.5 308.5,118 311,115.5C 318.299,125.763 324.299,136.763 329,148.5C 330.096,146.541 330.596,144.375 330.5,142C 329.697,132.408 328.364,122.908 326.5,113.5C 329.576,112.366 332.576,111.366 335.5,110.5 Z"/></g>
<g><path style="opacity:0.866" fill="#000000" d="M 466.5,110.5 C 467.222,110.918 467.722,111.584 468,112.5C 469.146,122.34 469.313,132.174 468.5,142C 468.253,151.793 471.753,153.626 479,147.5C 480.795,143.948 482.295,140.282 483.5,136.5C 485.833,137.167 488.167,137.833 490.5,138.5C 490.596,142.806 490.929,147.139 491.5,151.5C 496.097,148.088 498.43,143.421 498.5,137.5C 501.249,137.274 503.916,137.607 506.5,138.5C 507.021,141.778 507.187,145.111 507,148.5C 507.612,151.032 509.112,151.865 511.5,151C 513.41,150.592 514.41,149.425 514.5,147.5C 513.424,142.937 511.757,138.604 509.5,134.5C 512.167,132.833 514.833,131.167 517.5,129.5C 522.844,137.533 524.344,146.2 522,155.5C 519.154,160.425 514.821,162.759 509,162.5C 505.733,162.304 503.066,160.97 501,158.5C 495,163.833 489,163.833 483,158.5C 480.347,160.941 477.18,161.941 473.5,161.5C 465.763,162.249 460.929,158.916 459,151.5C 458.804,139.3 458.304,127.134 457.5,115C 460.208,112.825 463.208,111.325 466.5,110.5 Z"/></g>
<g><path style="opacity:0.875" fill="#000000" d="M 594.5,110.5 C 595.222,110.918 595.722,111.584 596,112.5C 597.146,122.34 597.313,132.174 596.5,142C 595.39,147.967 597.723,151.134 603.5,151.5C 612.946,151.731 616.28,147.397 613.5,138.5C 616.546,137.816 619.546,137.316 622.5,137C 623.753,141.706 625.086,146.372 626.5,151C 642.923,154.062 646.59,148.729 637.5,135C 640.585,133.04 643.752,131.207 647,129.5C 652.076,137.829 653.076,146.496 650,155.5C 645.389,160.871 639.556,162.871 632.5,161.5C 627.674,161.695 623.007,161.029 618.5,159.5C 609.86,161.881 601.193,162.048 592.5,160C 589.412,157.924 587.579,155.091 587,151.5C 586.804,139.3 586.304,127.134 585.5,115C 588.208,112.825 591.208,111.325 594.5,110.5 Z"/></g>
<g><path style="opacity:0.739" fill="#000000" d="M 353.5,112.5 C 356.479,114.812 359.146,117.479 361.5,120.5C 359.5,123.167 357.167,125.5 354.5,127.5C 351.631,125.466 349.298,122.966 347.5,120C 349.32,117.348 351.32,114.848 353.5,112.5 Z"/></g>
<g><path style="opacity:0.876" fill="#000000" d="M 377.5,114.5 C 378.833,114.5 380.167,114.5 381.5,114.5C 383.287,129.813 383.62,145.147 382.5,160.5C 378.881,161.244 375.215,161.577 371.5,161.5C 373.017,146.453 372.683,131.453 370.5,116.5C 373.152,116.59 375.485,115.924 377.5,114.5 Z"/></g>
<g><path style="opacity:0.724" fill="#000000" d="M 172.5,115.5 C 175.285,115.933 177.619,117.266 179.5,119.5C 181.204,117.959 183.037,116.625 185,115.5C 193.697,120.594 193.197,124.427 183.5,127C 182,125.5 180.5,124 179,122.5C 177.316,124.351 175.483,126.018 173.5,127.5C 171.167,125.833 169.167,123.833 167.5,121.5C 169.19,119.481 170.856,117.481 172.5,115.5 Z"/></g>
<g><path style="opacity:0.724" fill="#000000" d="M 123.5,118.5 C 126.285,118.933 128.619,120.266 130.5,122.5C 132.204,120.959 134.037,119.625 136,118.5C 144.697,123.594 144.197,127.427 134.5,130C 133,128.5 131.5,127 130,125.5C 128.316,127.351 126.483,129.018 124.5,130.5C 122.167,128.833 120.167,126.833 118.5,124.5C 120.19,122.481 121.856,120.481 123.5,118.5 Z"/></g>
<g><path style="opacity:0.874" fill="#000000" d="M 293.5,129.5 C 305.592,153.295 298.258,163.962 271.5,161.5C 269.671,175.825 261.505,182.825 247,182.5C 228.789,181.272 221.456,171.605 225,153.5C 226.19,148.787 228.19,144.453 231,140.5C 233.846,142.013 236.013,144.179 237.5,147C 233.968,153.251 233.135,159.751 235,166.5C 242.189,173.254 250.022,174.087 258.5,169C 260.484,166.866 261.818,164.366 262.5,161.5C 261,155.836 259,150.336 256.5,145C 256.759,143.739 257.426,142.739 258.5,142C 260.664,141.086 262.664,139.919 264.5,138.5C 267.043,142.421 269.71,146.254 272.5,150C 289.344,154.636 293.344,149.636 284.5,135C 287.564,133.141 290.564,131.308 293.5,129.5 Z"/></g>
<g><path style="opacity:0.867" fill="#000000" d="M 127.5,131.5 C 137.625,131.446 143.792,136.446 146,146.5C 148.925,158.197 146.091,168.364 137.5,177C 126.07,183.507 115.236,182.674 105,174.5C 98.193,164.541 97.693,154.208 103.5,143.5C 104.167,143.167 104.833,142.833 105.5,142.5C 107.762,143.467 110.095,144.134 112.5,144.5C 110.765,149.375 109.432,154.375 108.5,159.5C 111.539,168.691 117.872,172.191 127.5,170C 131.255,168.412 134.255,165.912 136.5,162.5C 119.077,161.643 113.91,153.31 121,137.5C 123.063,135.266 125.229,133.266 127.5,131.5 Z M 129.5,142.5 C 134.216,143.555 136.883,146.555 137.5,151.5C 133.212,152.014 129.545,150.847 126.5,148C 127.124,145.915 128.124,144.082 129.5,142.5 Z"/></g>
<g><path style="opacity:0.739" fill="#000000" d="M 246.5,131.5 C 249.479,133.812 252.146,136.479 254.5,139.5C 252.5,142.167 250.167,144.5 247.5,146.5C 244.631,144.466 242.298,141.966 240.5,139C 242.32,136.348 244.32,133.848 246.5,131.5 Z"/></g>
<g><path style="opacity:0.739" fill="#000000" d="M 429.5,131.5 C 432.479,133.812 435.146,136.479 437.5,139.5C 435.5,142.167 433.167,144.5 430.5,146.5C 427.631,144.466 425.298,141.966 423.5,139C 425.32,136.348 427.32,133.848 429.5,131.5 Z"/></g>
<g><path style="opacity:0.875" fill="#000000" d="M 565.5,131.5 C 576.038,131.201 581.705,136.367 582.5,147C 582.302,157.212 577.302,161.546 567.5,160C 563.833,158.5 560.167,157 556.5,155.5C 556.167,155.833 555.833,156.167 555.5,156.5C 556.563,165.114 557.23,173.78 557.5,182.5C 554.252,182.901 551.085,183.568 548,184.5C 546.557,172.532 546.223,160.532 547,148.5C 549.025,145.461 551.859,143.795 555.5,143.5C 557.816,138.529 561.15,134.529 565.5,131.5 Z M 567.5,142.5 C 571.8,142.815 573.467,145.149 572.5,149.5C 569.637,149.071 566.971,148.071 564.5,146.5C 565.172,144.84 566.172,143.507 567.5,142.5 Z"/></g>
<g><path style="opacity:0.857" fill="#000000" d="M 446.5,138.5 C 447.75,138.577 448.583,139.244 449,140.5C 451.554,146.991 453.387,153.658 454.5,160.5C 453.711,171.6 448.044,178.767 437.5,182C 413.169,185.004 403.336,174.504 408,150.5C 408.907,146.096 411.073,142.929 414.5,141C 416.731,142.61 418.731,144.443 420.5,146.5C 417.937,151.021 416.271,155.854 415.5,161C 416.03,166.066 418.696,169.4 423.5,171C 431.079,173.214 437.579,171.38 443,165.5C 444.422,162.97 444.755,160.303 444,157.5C 442.572,152.815 440.739,148.315 438.5,144C 441.407,142.391 444.073,140.558 446.5,138.5 Z"/></g>
<g><path style="opacity:0.839" fill="#000000" d="M 539.5,138.5 C 548.568,152.229 547.235,165.062 535.5,177C 531.668,179.75 527.668,182.25 523.5,184.5C 521.147,182.14 519.147,179.473 517.5,176.5C 523.784,172.712 529.284,168.046 534,162.5C 536.209,155.843 535.376,149.509 531.5,143.5C 533.97,141.462 536.637,139.795 539.5,138.5 Z"/></g>
<g><path style="opacity:0.713" fill="#000000" d="M 644.5,177.5 C 644.5,176.833 644.167,176.5 643.5,176.5C 643.5,175.833 643.167,175.5 642.5,175.5C 642.5,174.833 642.167,174.5 641.5,174.5C 641.5,173.833 641.167,173.5 640.5,173.5C 640.103,172.475 639.437,172.308 638.5,173C 637,174.5 635.5,176 634,177.5C 631.833,175.333 629.667,173.167 627.5,171C 629.683,168.65 632.016,166.483 634.5,164.5C 636.483,165.982 638.316,167.649 640,169.5C 641.74,167.046 643.907,165.546 646.5,165C 648.5,167 650.5,169 652.5,171C 650.229,173.782 647.563,175.949 644.5,177.5 Z"/></g>
<g><path style="opacity:0.724" fill="#000000" d="M 281.5,165.5 C 284.285,165.933 286.619,167.266 288.5,169.5C 290.204,167.959 292.037,166.625 294,165.5C 302.697,170.594 302.197,174.427 292.5,177C 291,175.5 289.5,174 288,172.5C 286.316,174.351 284.483,176.018 282.5,177.5C 280.167,175.833 278.167,173.833 276.5,171.5C 278.19,169.481 279.856,167.481 281.5,165.5 Z"/></g>
<g><path style="opacity:0.724" fill="#000000" d="M 607.5,166.5 C 610.285,166.933 612.619,168.266 614.5,170.5C 616.204,168.959 618.037,167.625 620,166.5C 628.697,171.594 628.197,175.427 618.5,178C 617,176.5 615.5,175 614,173.5C 612.316,175.351 610.483,177.018 608.5,178.5C 606.167,176.833 604.167,174.833 602.5,172.5C 604.19,170.481 605.856,168.481 607.5,166.5 Z"/></g>
<g><path style="opacity:0.689" fill="#000000" d="M 640.5,173.5 C 641.167,173.5 641.5,173.833 641.5,174.5C 642.167,174.5 642.5,174.833 642.5,175.5C 643.167,175.5 643.5,175.833 643.5,176.5C 644.167,176.5 644.5,176.833 644.5,177.5C 645.844,180.733 644.844,183.233 641.5,185C 632.6,182.378 632.267,178.545 640.5,173.5 Z"/></g>
<g><path style="opacity:0.677" fill="#000000" d="M 235.5,207.5 C 236.5,207.5 237.5,207.5 238.5,207.5C 238.657,208.873 238.49,210.207 238,211.5C 236.184,212.329 234.351,213.163 232.5,214C 237.214,217.827 237.547,221.827 233.5,226C 231.19,226.497 228.857,226.663 226.5,226.5C 225.655,230.353 223.321,233.019 219.5,234.5C 218.112,233.409 217.612,232.076 218,230.5C 222.953,228.295 224.12,224.962 221.5,220.5C 224.083,217.74 226.083,218.24 227.5,222C 229.641,222.884 231.307,222.384 232.5,220.5C 231.185,218.684 229.685,217.017 228,215.5C 227.333,214.167 227.333,212.833 228,211.5C 230.633,210.248 233.133,208.914 235.5,207.5 Z"/></g>
<g><path style="opacity:0.67" fill="#000000" d="M 158.5,219.5 C 161.724,217.75 163.558,218.75 164,222.5C 164.767,218.442 164.6,214.442 163.5,210.5C 164.85,209.05 166.516,208.383 168.5,208.5C 168.5,214.5 168.5,220.5 168.5,226.5C 167.022,226.238 165.689,226.571 164.5,227.5C 163.747,229.753 162.414,231.587 160.5,233C 148.85,235.208 145.017,230.708 149,219.5C 149.741,218.359 150.575,218.359 151.5,219.5C 152.031,222.099 152.198,224.765 152,227.5C 154.587,230.034 157.253,230.034 160,227.5C 160.428,224.678 159.928,222.012 158.5,219.5 Z"/></g>
<g><path style="opacity:0.68" fill="#000000" d="M 186.5,208.5 C 187.5,208.5 188.5,208.5 189.5,208.5C 189.5,214.5 189.5,220.5 189.5,226.5C 188.167,226.5 186.833,226.5 185.5,226.5C 185.785,221.103 185.451,215.77 184.5,210.5C 185.243,209.818 185.909,209.151 186.5,208.5 Z"/></g>
<g><path style="opacity:0.684" fill="#000000" d="M 298.5,208.5 C 301.799,209.901 302.132,211.735 299.5,214C 301.651,214.265 303.318,215.265 304.5,217C 303.667,219.5 302.167,220 300,218.5C 299.308,219.025 298.808,219.692 298.5,220.5C 300.423,221.308 302.423,221.808 304.5,222C 305.731,223.183 305.731,224.349 304.5,225.5C 297.402,226.171 290.402,226.504 283.5,226.5C 282.655,230.353 280.321,233.019 276.5,234.5C 275.112,233.409 274.612,232.076 275,230.5C 280.111,227.984 281.444,224.317 279,219.5C 280.049,218.483 281.216,218.316 282.5,219C 285.871,223.932 287.871,223.432 288.5,217.5C 289.833,217.5 291.167,217.5 292.5,217.5C 292.231,219.429 292.731,221.095 294,222.5C 293.675,219.454 294.841,216.787 297.5,214.5C 296.15,212.217 296.483,210.217 298.5,208.5 Z"/></g>
<g><path style="opacity:0.681" fill="#000000" d="M 476.5,219.5 C 479.724,217.75 481.558,218.75 482,222.5C 482.333,218.167 482.667,213.833 483,209.5C 484.011,208.663 485.178,208.33 486.5,208.5C 486.334,212.846 486.501,217.179 487,221.5C 487.333,221.833 487.667,222.167 488,222.5C 489.044,221.377 489.71,220.044 490,218.5C 491.494,217.253 492.994,217.253 494.5,218.5C 493.572,219.768 493.405,221.101 494,222.5C 495.009,220.975 495.509,219.308 495.5,217.5C 497.954,217.679 500.121,217.013 502,215.5C 502.5,215.833 503,216.167 503.5,216.5C 504.799,219.699 504.799,222.865 503.5,226C 498.16,226.102 492.826,226.269 487.5,226.5C 485.626,226.61 484.126,225.944 483,224.5C 480.854,233.693 475.521,236.026 467,231.5C 464.887,226.966 465.22,222.633 468,218.5C 468.414,218.957 468.914,219.291 469.5,219.5C 470.031,222.099 470.198,224.765 470,227.5C 473.687,230.37 476.52,229.703 478.5,225.5C 477.822,223.484 477.156,221.484 476.5,219.5 Z M 499.5,218.5 C 501.368,219.786 501.534,221.119 500,222.5C 499.51,221.207 499.343,219.873 499.5,218.5 Z"/></g>
<g><path style="opacity:0.649" fill="#000000" d="M 530.5,208.5 C 531.5,208.5 532.5,208.5 533.5,208.5C 533.334,212.846 533.501,217.179 534,221.5C 537.669,223.009 539.169,221.676 538.5,217.5C 539.833,217.5 541.167,217.5 542.5,217.5C 542.322,222.453 544.322,223.619 548.5,221C 545.392,217.05 546.392,215.217 551.5,215.5C 551.511,217.547 551.844,219.547 552.5,221.5C 552.368,223.601 551.368,225.101 549.5,226C 551.032,226.7 552.032,227.866 552.5,229.5C 551.185,231.316 549.685,232.983 548,234.5C 546.426,233.016 545.093,231.349 544,229.5C 542.494,232.474 540.828,232.807 539,230.5C 537.194,232.952 535.694,232.619 534.5,229.5C 534.887,228.28 535.72,227.613 537,227.5C 539.091,227.579 541.258,227.913 543.5,228.5C 544.308,228.192 544.975,227.692 545.5,227C 543.567,226.749 541.734,226.249 540,225.5C 535.837,227.274 532.17,226.607 529,223.5C 526.912,227.179 524.245,227.512 521,224.5C 520.667,227.5 520.333,230.5 520,233.5C 518.989,234.337 517.822,234.67 516.5,234.5C 516.334,230.154 516.501,225.821 517,221.5C 519.094,218.897 521.594,216.897 524.5,215.5C 526.601,215.632 528.101,216.632 529,218.5C 529.248,215.081 529.748,211.747 530.5,208.5 Z"/></g>
<g><path style="opacity:0.704" fill="#000000" d="M 563.5,220.5 C 560.159,227.148 562.159,229.815 569.5,228.5C 570.081,225.28 570.414,222.113 570.5,219C 571,218.833 571.5,218.667 572,218.5C 573.37,220.203 575.036,221.536 577,222.5C 579.157,221.615 579.99,219.948 579.5,217.5C 580.833,217.5 582.167,217.5 583.5,217.5C 583.116,219.665 583.783,221.332 585.5,222.5C 585.743,218.176 586.076,213.843 586.5,209.5C 587.609,208.41 588.609,208.41 589.5,209.5C 590.943,214.897 590.777,220.23 589,225.5C 584.107,225.86 579.274,226.193 574.5,226.5C 574.528,228.582 573.861,230.416 572.5,232C 561.769,236.259 557.269,232.759 559,221.5C 559.964,217.995 561.464,217.662 563.5,220.5 Z"/></g>
<g><path style="opacity:0.68" fill="#000000" d="M 603.5,208.5 C 604.5,208.5 605.5,208.5 606.5,208.5C 606.5,214.5 606.5,220.5 606.5,226.5C 605.167,226.5 603.833,226.5 602.5,226.5C 602.785,221.103 602.451,215.77 601.5,210.5C 602.243,209.818 602.909,209.151 603.5,208.5 Z"/></g>
<g><path style="opacity:0.674" fill="#000000" d="M 375.5,210.5 C 377.477,211.149 379.31,211.149 381,210.5C 384.12,211.593 384.287,213.093 381.5,215C 383.795,218.599 383.795,222.099 381.5,225.5C 374.167,226.833 366.833,226.833 359.5,225.5C 356.633,227.042 354.299,229.209 352.5,232C 350.323,233.202 347.989,233.702 345.5,233.5C 345.741,230.001 344.908,229.668 343,232.5C 341.667,229.833 340.333,229.833 339,232.5C 338,231.5 337,230.5 336,229.5C 334.261,231.741 332.094,233.408 329.5,234.5C 328.392,231.497 326.725,230.997 324.5,233C 313.69,236.179 309.19,232.345 311,221.5C 312.153,219.503 313.653,219.17 315.5,220.5C 312.613,229.115 315.279,231.615 323.5,228C 317.601,225.502 316.935,221.836 321.5,217C 324.457,214.879 327.124,215.046 329.5,217.5C 329.167,218.167 328.833,218.833 328.5,219.5C 321.276,220.724 320.943,222.558 327.5,225C 329.253,230.688 331.253,230.522 333.5,224.5C 331.979,222.714 331.646,220.881 332.5,219C 333.5,218.333 334.5,218.333 335.5,219C 336.69,222.509 338.69,223.175 341.5,221C 338.392,217.05 339.392,215.217 344.5,215.5C 347.335,223.163 344.668,227.163 336.5,227.5C 336.667,227.833 336.833,228.167 337,228.5C 339.044,227.994 341.044,227.661 343,227.5C 345.949,230.193 348.782,230.027 351.5,227C 346.782,225.551 345.282,222.385 347,217.5C 352.014,214.12 355.347,215.453 357,221.5C 357.722,218.118 359.555,217.118 362.5,218.5C 365.71,215.778 369.376,214.944 373.5,216C 375.229,217.789 375.896,219.956 375.5,222.5C 379.964,222.368 380.63,220.701 377.5,217.5C 378.09,216.201 379.09,215.368 380.5,215C 379.251,213.176 378.085,213.343 377,215.5C 374.676,214.225 374.176,212.558 375.5,210.5 Z M 368.5,219.5 C 369.675,219.281 370.675,219.614 371.5,220.5C 369.809,222.256 367.809,222.756 365.5,222C 366.571,221.148 367.571,220.315 368.5,219.5 Z M 350.5,220.5 C 351.289,220.783 351.956,221.283 352.5,222C 351.184,222.528 350.517,222.028 350.5,220.5 Z"/></g>
<g><path style="opacity:0.684" fill="#000000" d="M 423.5,210.5 C 426,211.123 428.5,211.457 431,211.5C 431.507,212.996 431.007,214.163 429.5,215C 430.227,216.399 430.727,217.899 431,219.5C 435.563,213.81 439.23,214.476 442,221.5C 442.722,218.118 444.555,217.118 447.5,218.5C 451.514,215.088 455.68,214.755 460,217.5C 461.088,224.413 458.088,227.413 451,226.5C 448.775,226.435 446.608,226.102 444.5,225.5C 441.633,227.042 439.299,229.209 437.5,232C 435.323,233.202 432.989,233.702 430.5,233.5C 430.5,232.167 430.5,230.833 430.5,229.5C 432.842,229.496 434.842,228.663 436.5,227C 434.152,226.654 432.319,225.487 431,223.5C 429.195,226.039 426.695,227.039 423.5,226.5C 422.533,231.578 419.367,233.912 414,233.5C 408.059,234.058 405.226,231.391 405.5,225.5C 405.442,222.943 406.109,220.61 407.5,218.5C 408.672,218.919 409.672,219.585 410.5,220.5C 408.233,228.204 410.899,230.704 418.5,228C 415.574,227.313 414.241,225.48 414.5,222.5C 419.032,222.931 423.365,222.431 427.5,221C 424.494,218.365 424.828,216.365 428.5,215C 427.251,213.176 426.085,213.343 425,215.5C 422.676,214.225 422.176,212.558 423.5,210.5 Z M 453.5,219.5 C 454.675,219.281 455.675,219.614 456.5,220.5C 454.809,222.256 452.809,222.756 450.5,222C 451.571,221.148 452.571,220.315 453.5,219.5 Z M 435.5,220.5 C 436.289,220.783 436.956,221.283 437.5,222C 436.184,222.528 435.517,222.028 435.5,220.5 Z"/></g>
<g><path style="opacity:0.487" fill="#000000" d="M 223.5,211.5 C 227.473,213.46 227.473,215.46 223.5,217.5C 221.001,215.604 221.001,213.604 223.5,211.5 Z"/></g>
<g><path style="opacity:0.661" fill="#000000" d="M 206.5,212.5 C 212.994,214.82 215.16,219.153 213,225.5C 210,226.833 207,226.833 204,225.5C 202.39,229.612 199.556,232.612 195.5,234.5C 194.585,233.672 193.919,232.672 193.5,231.5C 196.402,229.76 198.402,227.26 199.5,224C 196.299,220.02 197.299,218.187 202.5,218.5C 202.343,219.873 202.51,221.207 203,222.5C 203.333,221.833 203.667,221.167 204,220.5C 206.095,222.05 208.262,222.383 210.5,221.5C 208.833,219.5 207.167,217.5 205.5,215.5C 206.127,214.583 206.461,213.583 206.5,212.5 Z"/></g>
<g><path style="opacity:0.681" fill="#000000" d="M 257.5,212.5 C 260,213.123 262.5,213.457 265,213.5C 265.507,214.996 265.007,216.163 263.5,217C 264.11,218.947 264.943,220.781 266,222.5C 267.743,220.679 269.243,218.679 270.5,216.5C 273.288,215.04 275.455,215.707 277,218.5C 278.539,222.805 277.206,225.472 273,226.5C 263.321,226.169 253.488,226.169 243.5,226.5C 242.655,230.353 240.321,233.019 236.5,234.5C 235.585,233.672 234.919,232.672 234.5,231.5C 237.19,229.807 239.19,227.473 240.5,224.5C 239.833,223.167 239.167,221.833 238.5,220.5C 238.887,219.28 239.72,218.613 241,218.5C 242.767,219.34 244.101,220.673 245,222.5C 246.68,219.437 249.013,217.104 252,215.5C 255.333,216.664 256.833,218.998 256.5,222.5C 257.552,222.649 258.552,222.483 259.5,222C 259.996,220.004 260.996,218.337 262.5,217C 261.251,215.176 260.085,215.343 259,217.5C 256.676,216.225 256.176,214.558 257.5,212.5 Z M 250.5,221.5 C 251.077,220.227 251.743,220.227 252.5,221.5C 252.03,222.463 251.363,222.463 250.5,221.5 Z"/></g>
<g><path style="opacity:0.487" fill="#000000" d="M 158.5,219.5 C 156.415,222.24 154.748,222.073 153.5,219C 155.456,214.423 157.123,214.59 158.5,219.5 Z"/></g>
<g><path style="opacity:0.633" fill="#000000" d="M 179.5,215.5 C 180.833,215.5 182.167,215.5 183.5,215.5C 186.335,223.163 183.668,227.163 175.5,227.5C 178.028,227.921 180.695,228.088 183.5,228C 184.668,229.871 184.168,231.371 182,232.5C 180.667,229.833 179.333,229.833 178,232.5C 177,231.5 176,230.5 175,229.5C 173.261,231.741 171.094,233.408 168.5,234.5C 167.585,233.672 166.919,232.672 166.5,231.5C 169.19,229.807 171.19,227.473 172.5,224.5C 171.36,222.922 170.86,221.256 171,219.5C 173.761,217.983 175.594,218.816 176.5,222C 177.5,222.667 178.5,222.667 179.5,222C 179.106,219.94 179.106,217.773 179.5,215.5 Z"/></g>
<g><path style="opacity:0.683" fill="#000000" d="M 391.5,215.5 C 394.044,215.104 396.211,215.771 398,217.5C 401.716,227.081 398.549,232.414 388.5,233.5C 388.5,232.167 388.5,230.833 388.5,229.5C 395.288,228.646 395.788,226.98 390,224.5C 389.068,221.177 389.568,218.177 391.5,215.5 Z M 393.5,220.5 C 394.289,220.783 394.956,221.283 395.5,222C 394.184,222.528 393.517,222.028 393.5,220.5 Z"/></g>
<g><path style="opacity:0.487" fill="#000000" d="M 476.5,219.5 C 474.415,222.24 472.748,222.073 471.5,219C 473.456,214.423 475.123,214.59 476.5,219.5 Z"/></g>
<g><path style="opacity:0.487" fill="#000000" d="M 563.5,220.5 C 564.098,215.474 565.764,214.808 568.5,218.5C 567.468,221.193 565.802,221.86 563.5,220.5 Z"/></g>
<g><path style="opacity:0.683" fill="#000000" d="M 593.5,215.5 C 596.044,215.104 598.211,215.771 600,217.5C 603.716,227.081 600.549,232.414 590.5,233.5C 590.5,232.167 590.5,230.833 590.5,229.5C 597.288,228.646 597.788,226.98 592,224.5C 591.068,221.177 591.568,218.177 593.5,215.5 Z M 595.5,220.5 C 596.289,220.783 596.956,221.283 597.5,222C 596.184,222.528 595.517,222.028 595.5,220.5 Z"/></g>
<g><path style="opacity:0.642" fill="#000000" d="M 506.5,218.5 C 507.833,218.5 509.167,218.5 510.5,218.5C 512.815,225.893 510.482,231.226 503.5,234.5C 502.585,233.672 501.919,232.672 501.5,231.5C 503.829,230.002 505.663,228.002 507,225.5C 507.536,223.433 507.036,221.599 505.5,220C 506.056,219.617 506.389,219.117 506.5,218.5 Z"/></g>
<g><path style="opacity:0.459" fill="#000000" d="M 285.5,227.5 C 287.477,228.149 289.31,228.149 291,227.5C 294.175,228.912 294.175,230.579 291,232.5C 289.667,229.833 288.333,229.833 287,232.5C 284.676,231.225 284.176,229.558 285.5,227.5 Z"/></g>
<g><path style="opacity:0.459" fill="#000000" d="M 576.5,227.5 C 578.477,228.149 580.31,228.149 582,227.5C 585.175,228.912 585.175,230.579 582,232.5C 580.667,229.833 579.333,229.833 578,232.5C 575.676,231.225 575.176,229.558 576.5,227.5 Z"/></g>
<g><path style="opacity:0.891" fill="#3a3a3a" d="M 366.5,252.5 C 436.901,251.936 490.068,281.603 526,341.5C 547.047,382.782 551.38,425.782 539,470.5C 514.652,541.503 465.152,581.669 390.5,591C 318.165,593.76 263.665,564.26 227,502.5C 205.99,461.207 201.657,418.207 214,373.5C 232.902,315.598 271.402,277.431 329.5,259C 341.793,255.762 354.127,253.596 366.5,252.5 Z"/></g>
<g><path style="opacity:1" fill="#fdfdfd" d="M 356.5,257.5 C 427.875,252.768 482.375,280.435 520,340.5C 545.378,388.218 548.045,437.218 528,487.5C 504.074,538.757 464.574,570.923 409.5,584C 338.183,594.738 281.349,571.238 239,513.5C 202.472,452.465 202.472,391.465 239,330.5C 267.789,289.559 306.956,265.226 356.5,257.5 Z"/></g>
<g><path style="opacity:1" fill="#0d0d0d" d="M 380.5,308.5 C 389.062,312.232 394.062,318.732 395.5,328C 417.472,332.983 436.138,343.65 451.5,360C 452.448,360.483 453.448,360.649 454.5,360.5C 459.167,359.167 463.833,359.167 468.5,360.5C 481.574,365.988 486.074,375.655 482,389.5C 479.485,393.344 476.985,397.177 474.5,401C 479.441,418.569 479.774,436.236 475.5,454C 477.957,457.133 480.457,460.299 483,463.5C 486.484,470.98 486.15,478.313 482,485.5C 479.843,488.976 477.01,491.643 473.5,493.5C 469.21,494.425 464.876,495.091 460.5,495.5C 450.471,494.163 444.304,488.496 442,478.5C 440.657,459.677 449.49,451.011 468.5,452.5C 471.454,436.056 471.12,419.723 467.5,403.5C 462.668,402.6 457.668,401.934 452.5,401.5C 438.256,392.5 435.756,380.834 445,366.5C 445.667,365.5 445.667,364.5 445,363.5C 430.846,349.844 414.346,340.511 395.5,335.5C 387.581,350.268 375.915,354.434 360.5,348C 356.422,344.663 353.755,340.497 352.5,335.5C 331.93,340.384 314.763,351.051 301,367.5C 300.333,368.5 300.333,369.5 301,370.5C 307.612,378.92 308.279,387.92 303,397.5C 300.963,399.706 298.797,401.706 296.5,403.5C 293.603,404.129 290.936,405.129 288.5,406.5C 286.076,406.192 283.743,406.526 281.5,407.5C 277.466,422.845 277.633,438.178 282,453.5C 285.874,455.273 290.04,456.439 294.5,457C 309.207,464.795 312.373,475.962 304,490.5C 301.697,492.393 299.53,494.393 297.5,496.5C 295.382,497.946 293.049,498.613 290.5,498.5C 286.466,498.495 282.466,498.162 278.5,497.5C 269.394,493.865 264.728,487.032 264.5,477C 264.523,474.075 265.023,471.241 266,468.5C 268.89,464.293 271.724,460.127 274.5,456C 270.967,439.567 270.633,423.067 273.5,406.5C 273.333,405.5 273.167,404.5 273,403.5C 263.22,395.824 260.554,386.158 265,374.5C 267,371.334 269.5,368.668 272.5,366.5C 278.021,364.718 283.687,363.718 289.5,363.5C 291.068,364.473 292.735,364.64 294.5,364C 307.214,347.438 323.548,336.271 343.5,330.5C 346.152,330.59 348.485,329.924 350.5,328.5C 351.701,320.633 355.701,314.633 362.5,310.5C 368.346,308.767 374.346,308.1 380.5,308.5 Z"/></g>
<g><path style="opacity:1" fill="#666666" d="M 380.5,308.5 C 374.346,308.1 368.346,308.767 362.5,310.5C 363.058,309.21 364.058,308.377 365.5,308C 370.684,307.184 375.684,307.35 380.5,308.5 Z"/></g>
<g><path style="opacity:1" fill="#afafaf" d="M 379.5,316.5 C 374.77,316.283 370.103,316.617 365.5,317.5C 367.456,315.452 369.956,314.452 373,314.5C 375.484,314.497 377.651,315.163 379.5,316.5 Z"/></g>
<g><path style="opacity:1" fill="#f9f9f9" d="M 379.5,316.5 C 387.846,321.642 389.679,328.642 385,337.5C 383.594,339.744 381.761,341.41 379.5,342.5C 374.77,342.717 370.103,342.383 365.5,341.5C 358.167,336.201 356.667,329.535 361,321.5C 362.307,319.808 363.807,318.475 365.5,317.5C 370.103,316.617 374.77,316.283 379.5,316.5 Z"/></g>
<g><path style="opacity:1" fill="#7d7d7d" d="M 350.5,328.5 C 348.485,329.924 346.152,330.59 343.5,330.5C 345.515,329.076 347.848,328.41 350.5,328.5 Z"/></g>
<g><path style="opacity:1" fill="#afafaf" d="M 365.5,341.5 C 370.103,342.383 374.77,342.717 379.5,342.5C 375.384,344.958 371.05,345.124 366.5,343C 365.944,342.617 365.611,342.117 365.5,341.5 Z"/></g>
<g><path style="opacity:1" fill="#010101" d="M 374.5,357.5 C 375.455,368.449 375.789,379.449 375.5,390.5C 374.178,390.67 373.011,390.337 372,389.5C 371.192,379.09 371.359,368.757 372.5,358.5C 372.842,357.662 373.508,357.328 374.5,357.5 Z"/></g>
<g><path style="opacity:1" fill="#9f9f9f" d="M 468.5,360.5 C 463.833,359.167 459.167,359.167 454.5,360.5C 459.167,357.833 463.833,357.833 468.5,360.5 Z"/></g>
<g><path style="opacity:1" fill="#181818" d="M 374.5,357.5 C 375.458,357.953 376.292,358.619 377,359.5C 377.819,370.077 377.652,380.577 376.5,391C 373.937,391.918 371.77,391.418 370,389.5C 369.333,379.5 369.333,369.5 370,359.5C 370.671,358.748 371.504,358.414 372.5,358.5C 371.359,368.757 371.192,379.09 372,389.5C 373.011,390.337 374.178,390.67 375.5,390.5C 375.789,379.449 375.455,368.449 374.5,357.5 Z"/></g>
<g><path style="opacity:1" fill="#444444" d="M 289.5,363.5 C 283.687,363.718 278.021,364.718 272.5,366.5C 274.242,365.043 276.242,363.876 278.5,363C 282.358,362.19 286.024,362.357 289.5,363.5 Z"/></g>
<g><path style="opacity:1" fill="#f8f8f8" d="M 455.5,367.5 C 470.043,365.675 476.543,372.009 475,386.5C 470.917,394.462 464.417,397.295 455.5,395C 447.127,389.199 445.293,381.699 450,372.5C 451.73,370.598 453.563,368.931 455.5,367.5 Z"/></g>
<g><path style="opacity:1" fill="#9b9b9b" d="M 290.5,371.5 C 286.5,371.5 282.5,371.5 278.5,371.5C 282.5,368.833 286.5,368.833 290.5,371.5 Z"/></g>
<g><path style="opacity:1" fill="#f7f7f7" d="M 278.5,371.5 C 282.5,371.5 286.5,371.5 290.5,371.5C 302.641,380.498 302.474,389.498 290,398.5C 274.43,399.921 268.43,392.921 272,377.5C 273.98,375.101 276.147,373.101 278.5,371.5 Z"/></g>
<g><path style="opacity:1" fill="#131313" d="M 429.5,393.5 C 431.857,393.337 434.19,393.503 436.5,394C 437.833,395.667 437.833,397.333 436.5,399C 428.375,403.23 420.375,407.73 412.5,412.5C 407.383,414.552 405.55,412.885 407,407.5C 407.308,406.692 407.808,406.025 408.5,405.5C 416.302,402.77 423.302,398.77 429.5,393.5 Z"/></g>
<g><path style="opacity:1" fill="#111111" d="M 310.5,395.5 C 315.902,397.029 321.235,398.863 326.5,401C 330.387,404.111 334.72,406.444 339.5,408C 341.653,413.848 339.653,415.848 333.5,414C 325.99,409.162 318.156,404.996 310,401.5C 309.322,399.402 309.489,397.402 310.5,395.5 Z"/></g>
<g><path style="opacity:1" fill="#8a8a8a" d="M 378.5,398.5 C 374.143,398.586 369.81,398.92 365.5,399.5C 369.737,397.473 374.07,397.139 378.5,398.5 Z"/></g>
<g><path style="opacity:1" fill="#0e0e0e" d="M 378.5,398.5 C 398.85,402.804 407.684,415.471 405,436.5C 401.14,449 392.973,456.667 380.5,459.5C 374.013,459.848 367.68,459.182 361.5,457.5C 350.218,451.298 344.218,441.631 343.5,428.5C 344.928,414.104 352.261,404.437 365.5,399.5C 369.81,398.92 374.143,398.586 378.5,398.5 Z"/></g>
<g><path style="opacity:1" fill="#5a5a5a" d="M 452.5,401.5 C 457.668,401.934 462.668,402.6 467.5,403.5C 463.154,403.666 458.821,403.499 454.5,403C 453.584,402.722 452.918,402.222 452.5,401.5 Z"/></g>
<g><path style="opacity:1" fill="#939393" d="M 296.5,403.5 C 294.383,405.655 291.716,406.655 288.5,406.5C 290.936,405.129 293.603,404.129 296.5,403.5 Z"/></g>
<g><path style="opacity:1" fill="#848484" d="M 380.5,406.5 C 375.463,406.413 370.463,406.746 365.5,407.5C 365.918,406.778 366.584,406.278 367.5,406C 372.02,405.186 376.354,405.353 380.5,406.5 Z"/></g>
<g><path style="opacity:1" fill="#fbfbfb" d="M 380.5,406.5 C 391.203,409.879 397.203,417.212 398.5,428.5C 397.808,439.597 392.474,447.263 382.5,451.5C 376.464,451.64 370.464,451.307 364.5,450.5C 351.522,442.051 348.355,430.718 355,416.5C 357.459,412.202 360.959,409.202 365.5,407.5C 370.463,406.746 375.463,406.413 380.5,406.5 Z"/></g>
<g><path style="opacity:1" fill="#121212" d="M 407.5,444.5 C 409.527,444.338 411.527,444.505 413.5,445C 421.29,449.377 429.29,453.377 437.5,457C 439.833,462.333 438.167,464.333 432.5,463C 424.573,459.036 416.573,455.036 408.5,451C 407.577,448.959 407.244,446.792 407.5,444.5 Z"/></g>
<g><path style="opacity:1" fill="#181818" d="M 334.5,445.5 C 341.536,444.603 343.203,447.103 339.5,453C 331.992,456.539 324.658,460.373 317.5,464.5C 310.46,466.465 308.793,464.298 312.5,458C 320.211,454.446 327.544,450.279 334.5,445.5 Z"/></g>
<g><path style="opacity:1" fill="#a7a7a7" d="M 364.5,450.5 C 370.464,451.307 376.464,451.64 382.5,451.5C 376.341,454.314 370.341,453.981 364.5,450.5 Z"/></g>
<g><path style="opacity:1" fill="#616161" d="M 361.5,457.5 C 367.68,459.182 374.013,459.848 380.5,459.5C 376.019,460.648 371.352,460.815 366.5,460C 364.509,459.626 362.842,458.793 361.5,457.5 Z"/></g>
<g><path style="opacity:1" fill="#7c7c7c" d="M 360.5,460.5 C 354.64,460.455 348.973,461.455 343.5,463.5C 348.764,459.808 354.431,458.808 360.5,460.5 Z"/></g>
<g><path style="opacity:1" fill="#0b0b0b" d="M 360.5,460.5 C 364.772,466.11 369.438,471.443 374.5,476.5C 379.323,471.508 383.99,466.342 388.5,461C 406.57,460.951 419.404,469.118 427,485.5C 427.977,487.74 428.477,490.073 428.5,492.5C 428.5,503.5 428.5,514.5 428.5,525.5C 424.84,525.159 421.507,525.825 418.5,527.5C 416.585,527.216 414.919,527.549 413.5,528.5C 408.29,528.608 403.29,529.275 398.5,530.5C 380.139,531.865 361.806,531.532 343.5,529.5C 341.393,528.532 339.059,528.198 336.5,528.5C 334.162,526.96 331.495,526.294 328.5,526.5C 326.585,526.784 324.919,526.451 323.5,525.5C 321.554,514.086 320.888,502.419 321.5,490.5C 324.426,477.908 331.759,468.908 343.5,463.5C 348.973,461.455 354.64,460.455 360.5,460.5 Z"/></g>
<g><path style="opacity:1" fill="#f5f5f5" d="M 457.5,459.5 C 471.438,458.272 477.938,464.606 477,478.5C 471.927,488.803 464.427,491.136 454.5,485.5C 446.101,475.812 447.101,467.146 457.5,459.5 Z"/></g>
<g><path style="opacity:1" fill="#f7f7f7" d="M 291.5,490.5 C 287.833,490.5 284.167,490.5 280.5,490.5C 273.021,486.2 270.521,479.867 273,471.5C 278.508,461.808 286.008,459.975 295.5,466C 300.654,471.344 301.82,477.511 299,484.5C 296.894,487.118 294.394,489.118 291.5,490.5 Z"/></g>
<g><path style="opacity:1" fill="#6c6c6c" d="M 392.5,468.5 C 396.455,467.105 400.122,467.771 403.5,470.5C 399.915,469.417 396.249,468.751 392.5,468.5 Z"/></g>
<g><path style="opacity:1" fill="#fbfbfb" d="M 392.5,468.5 C 396.249,468.751 399.915,469.417 403.5,470.5C 410.093,473.924 415.259,478.924 419,485.5C 419.977,487.74 420.477,490.073 420.5,492.5C 420.831,501.192 420.498,509.859 419.5,518.5C 417.664,519.028 415.997,519.694 414.5,520.5C 406.779,522.627 398.779,523.794 390.5,524C 379.992,524.825 369.658,524.659 359.5,523.5C 353.739,521.943 347.739,521.276 341.5,521.5C 337.206,521.423 333.039,520.756 329,519.5C 328.333,509.833 328.333,500.167 329,490.5C 333.425,476.391 342.925,469.225 357.5,469C 363.382,475.377 369.049,481.877 374.5,488.5C 380.152,481.515 386.152,474.848 392.5,468.5 Z"/></g>
<g><path style="opacity:1" fill="#969696" d="M 280.5,490.5 C 284.167,490.5 287.833,490.5 291.5,490.5C 287.858,493.011 284.192,493.011 280.5,490.5 Z"/></g>
<g><path style="opacity:1" fill="#adadad" d="M 473.5,493.5 C 472.653,494.966 471.32,495.8 469.5,496C 466.304,496.805 463.304,496.638 460.5,495.5C 464.876,495.091 469.21,494.425 473.5,493.5 Z"/></g>
<g><path style="opacity:1" fill="#626262" d="M 321.5,490.5 C 320.888,502.419 321.554,514.086 323.5,525.5C 322.5,525.5 321.5,525.5 320.5,525.5C 320.172,513.655 320.505,501.988 321.5,490.5 Z"/></g>
<g><path style="opacity:1" fill="#bcbcbc" d="M 420.5,492.5 C 421.822,501.342 421.822,510.342 420.5,519.5C 418.591,520.348 416.591,520.682 414.5,520.5C 415.997,519.694 417.664,519.028 419.5,518.5C 420.498,509.859 420.831,501.192 420.5,492.5 Z"/></g>
<g><path style="opacity:1" fill="#b4b4b4" d="M 428.5,492.5 C 429.495,503.654 429.828,514.988 429.5,526.5C 425.821,526.724 422.154,527.058 418.5,527.5C 421.507,525.825 424.84,525.159 428.5,525.5C 428.5,514.5 428.5,503.5 428.5,492.5 Z"/></g>
<g><path style="opacity:1" fill="#717171" d="M 278.5,497.5 C 282.466,498.162 286.466,498.495 290.5,498.5C 289.036,499.16 287.369,499.493 285.5,499.5C 282.795,499.684 280.462,499.017 278.5,497.5 Z"/></g>
<g><path style="opacity:1" fill="#9b9b9b" d="M 341.5,521.5 C 347.739,521.276 353.739,521.943 359.5,523.5C 353.274,523.612 347.274,522.946 341.5,521.5 Z"/></g>
<g><path style="opacity:1" fill="#6e6e6e" d="M 328.5,526.5 C 331.495,526.294 334.162,526.96 336.5,528.5C 333.447,528.889 330.78,528.223 328.5,526.5 Z"/></g>
<g><path style="opacity:1" fill="#8e8e8e" d="M 413.5,528.5 C 408.766,530.145 403.766,530.811 398.5,530.5C 403.29,529.275 408.29,528.608 413.5,528.5 Z"/></g>
<g><path style="opacity:1" fill="#949494" d="M 343.5,529.5 C 361.806,531.532 380.139,531.865 398.5,530.5C 391.218,531.944 383.718,532.611 376,532.5C 364.925,532.509 354.092,531.509 343.5,529.5 Z"/></g>
</svg>
